# xmcd
#
# Track frame offsets:
#	150
#	15085
#	39897
#	62561
#	85584
#	97365
#
# Disc length: 1571 seconds
#
# Revision: 1
# Processed by: cddbd v1.5.2PL0 Copyright (c) Steve Scherf et al.
# Submitted via: audiograbber 1.83.01
#
DISCID=38062106
DTITLE=Blues Bone Band - Blues Feelings
DYEAR=2009
DGENRE=Blues
TTITLE0=Trouble's Shuffle
TTITLE1=Try Me
TTITLE2=The Story of My Life
TTITLE3=The Thrill is Gone
TTITLE4=Chicken Fried Snake
TTITLE5=Honey Hush
EXTD=
EXTT0=
EXTT1=
EXTT2=
EXTT3=
EXTT4=
EXTT5=
PLAYORDER=
